<mxfile host="65bd71144e">
    <diagram id="x2Xssf3hIkPM9AifyEp1" name="Страница 1">
        <mxGraphModel dx="788" dy="647" grid="1" gridSize="10" guides="1" tooltips="1" connect="1" arrows="1" fold="1" page="1" pageScale="1" pageWidth="827" pageHeight="1169" math="0" shadow="0">
            <root>
                <mxCell id="0"/>
                <mxCell id="1" parent="0"/>
                <mxCell id="9" style="edgeStyle=orthogonalEdgeStyle;html=1;exitX=1;exitY=0.5;exitDx=0;exitDy=0;" edge="1" parent="1" source="2" target="11">
                    <mxGeometry relative="1" as="geometry">
                        <Array as="points">
                            <mxPoint x="350" y="50"/>
                        </Array>
                    </mxGeometry>
                </mxCell>
                <mxCell id="2" value="AUTH" style="rounded=0;whiteSpace=wrap;html=1;" vertex="1" parent="1">
                    <mxGeometry x="30" y="20" width="120" height="60" as="geometry"/>
                </mxCell>
                <mxCell id="4" value="&lt;font style=&quot;font-size: 25px;&quot; color=&quot;#ff0080&quot;&gt;&amp;nbsp; &amp;nbsp; &amp;nbsp; &amp;nbsp; &amp;nbsp; &amp;nbsp; &amp;nbsp; workspace&lt;/font&gt;" style="rounded=1;whiteSpace=wrap;html=1;align=left;verticalAlign=top;" vertex="1" parent="1">
                    <mxGeometry x="160" y="90" width="465" height="1150" as="geometry"/>
                </mxCell>
                <mxCell id="7" value="" style="curved=1;endArrow=classic;html=1;" edge="1" parent="1">
                    <mxGeometry width="50" height="50" relative="1" as="geometry">
                        <mxPoint x="380" y="360" as="sourcePoint"/>
                        <mxPoint x="430" y="310" as="targetPoint"/>
                        <Array as="points">
                            <mxPoint x="430" y="360"/>
                            <mxPoint x="380" y="310"/>
                        </Array>
                    </mxGeometry>
                </mxCell>
                <mxCell id="10" value="User ID - Workspace ID" style="text;html=1;align=center;verticalAlign=middle;resizable=0;points=[];autosize=1;strokeColor=none;fillColor=none;fontColor=#00CC00;" vertex="1" parent="1">
                    <mxGeometry x="180" y="20" width="150" height="30" as="geometry"/>
                </mxCell>
                <mxCell id="11" value="&amp;nbsp; &amp;nbsp;HOME PAGE" style="rounded=0;whiteSpace=wrap;html=1;align=left;verticalAlign=top;fillColor=#647687;fontColor=#ffffff;strokeColor=#314354;" vertex="1" parent="1">
                    <mxGeometry x="192.5" y="130" width="400" height="650" as="geometry"/>
                </mxCell>
                <mxCell id="15" value="HOME PAGE" style="rounded=0;whiteSpace=wrap;html=1;" vertex="1" parent="1">
                    <mxGeometry x="370" y="150" width="200" height="60" as="geometry"/>
                </mxCell>
                <mxCell id="17" value="MY_TASKS" style="rounded=0;whiteSpace=wrap;html=1;align=left;verticalAlign=top;" vertex="1" parent="1">
                    <mxGeometry x="370" y="230" width="200" height="270" as="geometry"/>
                </mxCell>
                <mxCell id="18" value="TABLE" style="rounded=0;whiteSpace=wrap;html=1;" vertex="1" parent="1">
                    <mxGeometry x="450" y="250" width="120" height="60" as="geometry"/>
                </mxCell>
                <mxCell id="27" value="KANBAN" style="rounded=0;whiteSpace=wrap;html=1;" vertex="1" parent="1">
                    <mxGeometry x="450" y="330" width="120" height="60" as="geometry"/>
                </mxCell>
                <mxCell id="28" value="CALENDAR" style="rounded=0;whiteSpace=wrap;html=1;" vertex="1" parent="1">
                    <mxGeometry x="450" y="410" width="120" height="60" as="geometry"/>
                </mxCell>
                <mxCell id="29" style="edgeStyle=orthogonalEdgeStyle;html=1;exitX=0.5;exitY=0;exitDx=0;exitDy=0;fontSize=25;fontColor=#00CC00;" edge="1" parent="1" source="11">
                    <mxGeometry relative="1" as="geometry">
                        <mxPoint x="570" y="172" as="targetPoint"/>
                    </mxGeometry>
                </mxCell>
            </root>
        </mxGraphModel>
    </diagram>
</mxfile>